<svg xmlns="http://www.w3.org/2000/svg" viewBox="0 0 512 512" role="img" aria-label="Prometheus flame">
  <defs>
    <linearGradient id="bg" x1="0%" y1="0%" x2="100%" y2="100%">
      <stop offset="0%" stop-color="#0f172a" />
      <stop offset="100%" stop-color="#020617" />
    </linearGradient>
    <linearGradient id="flame" x1="35%" y1="15%" x2="65%" y2="85%">
      <stop offset="0%" stop-color="#f97316" />
      <stop offset="100%" stop-color="#fb4b1b" />
    </linearGradient>
  </defs>
  <rect width="512" height="512" rx="64" fill="url(#bg)" />
  <path
    fill="url(#flame)"
    d="M256 88c-18 64-66 93-66 142 0 51 40 88 66 88s66-37 66-88c0-49-48-78-66-142Zm0 274c-40 0-90 22-90 62 0 7 6 13 13 13h154c7 0 13-6 13-13 0-40-50-62-90-62Z"/>
</svg>
